<?xml version="1.0" encoding="UTF-8" standalone="no"?>
<!-- Created with Inkscape (http://www.inkscape.org/) -->

<svg
   width="1066pt"
   height="1316pt"
   viewBox="0 0 355.33333 438.66666"
   version="1.1"
   id="svg1"
   xml:space="preserve"
   inkscape:version="1.3.2 (091e20e, 2023-11-25, custom)"
   sodipodi:docname="logo-lines.svg"
   xmlns:inkscape="http://www.inkscape.org/namespaces/inkscape"
   xmlns:sodipodi="http://sodipodi.sourceforge.net/DTD/sodipodi-0.dtd"
   xmlns="http://www.w3.org/2000/svg"
   xmlns:svg="http://www.w3.org/2000/svg"><sodipodi:namedview
     id="namedview1"
     pagecolor="#ffffff"
     bordercolor="#000000"
     borderopacity="0.25"
     inkscape:showpageshadow="2"
     inkscape:pageopacity="0.0"
     inkscape:pagecheckerboard="0"
     inkscape:deskcolor="#d1d1d1"
     inkscape:document-units="pt"
     inkscape:zoom="0.36213173"
     inkscape:cx="450.11245"
     inkscape:cy="951.31128"
     inkscape:window-width="1920"
     inkscape:window-height="1009"
     inkscape:window-x="1912"
     inkscape:window-y="-8"
     inkscape:window-maximized="1"
     inkscape:current-layer="layer1" /><defs
     id="defs1" /><g
     inkscape:label="Layer 1"
     inkscape:groupmode="layer"
     id="layer1"><path
       d="M 133.92396,248.75752 V 115.27523 H 86.298955 38.673954 V 87.823692 60.372158 L 51.573394,47.474732 64.472835,34.577307 H 192.33173 320.19063 V 61.894545 89.211783 L 307.1609,102.2435 294.13118,115.27523 H 259.5359 224.94063 v 120.58956 120.58956 l -12.89844,12.89196 -12.89844,12.89197 -32.60989,7.7e-4 -32.6099,7.7e-4 z m 77.45574,120.7172 c 6.87643,-6.87529 12.5026,-12.59029 12.5026,-12.7 0,-0.10972 -14.31774,-0.19948 -31.81718,-0.19948 h -31.81718 l -12.69794,12.7 -12.69793,12.7 h 32.01252 32.01251 z m -19.31253,-13.16407 h 32.34429 V 223.11458 c 0,-73.25784 0.0723,-133.384407 0.1606,-133.61459 0.14562,-0.379478 4.58775,-0.418514 47.625,-0.418514 h 47.4644 V 62.093974 35.106473 H 192.19944 64.737415 L 51.837978,48.003899 38.938538,60.901324 V 87.624221 114.34712 L 51.573415,101.7143 64.208295,89.081476 h 47.674515 c 34.46827,0 47.72447,0.08085 47.85489,0.291863 0.10515,0.170147 -5.12944,5.605862 -12.5521,13.034361 l -12.73247,12.74251 V 248.36325 381.57629 L 147.088,368.94347 159.72288,356.31065 Z M 146.75625,102.04606 159.45419,89.346059 H 112.09377 64.733345 l -12.697932,12.700001 -12.697933,12.7 h 47.360415 47.360425 z m 159.87345,0.19948 c 6.87643,-6.875279 12.5026,-12.590612 12.5026,-12.700728 0,-0.110116 -21.16336,-0.170117 -47.02969,-0.133336 l -47.02969,0.06687 -0.0687,12.633844 -0.0687,12.63386 h 34.5958 34.5958 z"
        /></g></svg>
